<svg xmlns="http://www.w3.org/2000/svg" width="900" height="430" viewBox="0 0 900 430">
<rect width="100%" height="100%" fill="white"/>
<text x="24" y="34" font-family="Arial" font-size="20" font-weight="700">Macro-F1 por ano</text>
<text x="24" y="58" font-family="Arial" font-size="12" fill="#555">Grupos con menor macro-F1 en test estratificado</text>
<text x="24" y="100" font-family="Arial" font-size="13">2009</text>
<rect x="170" y="82" width="620" height="20" fill="#eef2f7"/>
<rect x="170" y="82" width="502" height="20" fill="#4f46e5"/>
<text x="802" y="97" font-family="Arial" font-size="12">0.811</text>
<text x="24" y="134" font-family="Arial" font-size="13">2011</text>
<rect x="170" y="116" width="620" height="20" fill="#eef2f7"/>
<rect x="170" y="116" width="510" height="20" fill="#4f46e5"/>
<text x="802" y="131" font-family="Arial" font-size="12">0.823</text>
<text x="24" y="168" font-family="Arial" font-size="13">2010</text>
<rect x="170" y="150" width="620" height="20" fill="#eef2f7"/>
<rect x="170" y="150" width="515" height="20" fill="#4f46e5"/>
<text x="802" y="165" font-family="Arial" font-size="12">0.831</text>
<text x="24" y="202" font-family="Arial" font-size="13">2013</text>
<rect x="170" y="184" width="620" height="20" fill="#eef2f7"/>
<rect x="170" y="184" width="536" height="20" fill="#4f46e5"/>
<text x="802" y="199" font-family="Arial" font-size="12">0.865</text>
<text x="24" y="236" font-family="Arial" font-size="13">2022</text>
<rect x="170" y="218" width="620" height="20" fill="#eef2f7"/>
<rect x="170" y="218" width="554" height="20" fill="#4f46e5"/>
<text x="802" y="233" font-family="Arial" font-size="12">0.894</text>
<text x="24" y="270" font-family="Arial" font-size="13">2018</text>
<rect x="170" y="252" width="620" height="20" fill="#eef2f7"/>
<rect x="170" y="252" width="557" height="20" fill="#4f46e5"/>
<text x="802" y="267" font-family="Arial" font-size="12">0.900</text>
<text x="24" y="304" font-family="Arial" font-size="13">2008</text>
<rect x="170" y="286" width="620" height="20" fill="#eef2f7"/>
<rect x="170" y="286" width="558" height="20" fill="#4f46e5"/>
<text x="802" y="301" font-family="Arial" font-size="12">0.901</text>
<text x="24" y="338" font-family="Arial" font-size="13">2019</text>
<rect x="170" y="320" width="620" height="20" fill="#eef2f7"/>
<rect x="170" y="320" width="561" height="20" fill="#4f46e5"/>
<text x="802" y="335" font-family="Arial" font-size="12">0.905</text>
<text x="24" y="372" font-family="Arial" font-size="13">2020</text>
<rect x="170" y="354" width="620" height="20" fill="#eef2f7"/>
<rect x="170" y="354" width="562" height="20" fill="#4f46e5"/>
<text x="802" y="369" font-family="Arial" font-size="12">0.908</text>
<text x="24" y="406" font-family="Arial" font-size="13">2015</text>
<rect x="170" y="388" width="620" height="20" fill="#eef2f7"/>
<rect x="170" y="388" width="562" height="20" fill="#4f46e5"/>
<text x="802" y="403" font-family="Arial" font-size="12">0.908</text>
</svg>
