<svg xmlns="http://www.w3.org/2000/svg" width="900" height="396" viewBox="0 0 900 396">
<rect width="100%" height="100%" fill="white"/>
<text x="24" y="34" font-family="Arial" font-size="20" font-weight="700">Macro-F1 por provincia</text>
<text x="24" y="58" font-family="Arial" font-size="12" fill="#555">Grupos con menor macro-F1 en test estratificado</text>
<text x="24" y="100" font-family="Arial" font-size="13">Salamanca</text>
<rect x="170" y="82" width="620" height="20" fill="#eef2f7"/>
<rect x="170" y="82" width="477" height="20" fill="#4f46e5"/>
<text x="802" y="97" font-family="Arial" font-size="12">0.770</text>
<text x="24" y="134" font-family="Arial" font-size="13">Palencia</text>
<rect x="170" y="116" width="620" height="20" fill="#eef2f7"/>
<rect x="170" y="116" width="523" height="20" fill="#4f46e5"/>
<text x="802" y="131" font-family="Arial" font-size="12">0.844</text>
<text x="24" y="168" font-family="Arial" font-size="13">Zamora</text>
<rect x="170" y="150" width="620" height="20" fill="#eef2f7"/>
<rect x="170" y="150" width="528" height="20" fill="#4f46e5"/>
<text x="802" y="165" font-family="Arial" font-size="12">0.852</text>
<text x="24" y="202" font-family="Arial" font-size="13">Leon</text>
<rect x="170" y="184" width="620" height="20" fill="#eef2f7"/>
<rect x="170" y="184" width="544" height="20" fill="#4f46e5"/>
<text x="802" y="199" font-family="Arial" font-size="12">0.879</text>
<text x="24" y="236" font-family="Arial" font-size="13">Segovia</text>
<rect x="170" y="218" width="620" height="20" fill="#eef2f7"/>
<rect x="170" y="218" width="548" height="20" fill="#4f46e5"/>
<text x="802" y="233" font-family="Arial" font-size="12">0.885</text>
<text x="24" y="270" font-family="Arial" font-size="13">Burgos</text>
<rect x="170" y="252" width="620" height="20" fill="#eef2f7"/>
<rect x="170" y="252" width="553" height="20" fill="#4f46e5"/>
<text x="802" y="267" font-family="Arial" font-size="12">0.893</text>
<text x="24" y="304" font-family="Arial" font-size="13">Soria</text>
<rect x="170" y="286" width="620" height="20" fill="#eef2f7"/>
<rect x="170" y="286" width="560" height="20" fill="#4f46e5"/>
<text x="802" y="301" font-family="Arial" font-size="12">0.904</text>
<text x="24" y="338" font-family="Arial" font-size="13">Avila</text>
<rect x="170" y="320" width="620" height="20" fill="#eef2f7"/>
<rect x="170" y="320" width="568" height="20" fill="#4f46e5"/>
<text x="802" y="335" font-family="Arial" font-size="12">0.916</text>
<text x="24" y="372" font-family="Arial" font-size="13">Valladolid</text>
<rect x="170" y="354" width="620" height="20" fill="#eef2f7"/>
<rect x="170" y="354" width="598" height="20" fill="#4f46e5"/>
<text x="802" y="369" font-family="Arial" font-size="12">0.966</text>
</svg>
